<?xml version="1.0" standalone="no"?>
<!DOCTYPE svg PUBLIC "-//W3C//DTD SVG 20010904//EN"
 "http://www.w3.org/TR/2001/REC-SVG-20010904/DTD/svg10.dtd">
<svg version="1.0" xmlns="http://www.w3.org/2000/svg"
 width="360.000000pt" height="360.000000pt" viewBox="0 0 360.000000 360.000000"
 preserveAspectRatio="xMidYMid meet">

<g transform="translate(0.000000,360.000000) scale(0.100000,-0.100000)"
fill="#000000" stroke="none">
<path d="M1650 2768 c-36 -5 -108 -24 -162 -42 -294 -100 -514 -321 -614 -614
-32 -94 -63 -267 -50 -280 4 -3 37 4 74 16 l67 22 17 89 c33 170 108 310 231
433 117 117 257 191 428 227 52 10 114 30 139 43 41 21 61 23 235 28 l190 5
-95 32 c-151 50 -301 64 -460 41z"/>
<path d="M1855 2641 c-101 -26 -186 -101 -249 -219 -60 -113 -146 -221 -273
-342 -158 -152 -318 -250 -471 -290 l-67 -18 0 -93 0 -93 65 -3 c355 -17 736
-123 1000 -278 l92 -55 312 0 311 0 76 64 c106 90 151 154 157 222 6 76 -16
431 -34 533 -24 139 -124 423 -165 467 -11 11 -54 40 -97 65 l-77 44 -275 2
c-151 1 -288 -2 -305 -6z m383 -57 c26 -18 28 -50 5 -76 -22 -25 -59 -23 -77
4 -21 30 -20 44 4 68 24 24 38 25 68 4z m-48 -317 c9 -92 14 -170 11 -172 -2
-3 -83 -5 -180 -5 -194 0 -224 7 -265 63 -29 40 -35 169 -11 221 29 61 47 66
250 63 l180 -2 15 -168z m420 136 c27 -28 43 -57 58 -110 26 -85 27 -121 6
-152 -30 -42 -71 -51 -238 -51 l-155 0 -5 33 c-5 29 -36 299 -36 312 0 3 75 5
166 5 l166 0 38 -37z m-1087 -451 c-41 -33 -274 -146 -376 -181 -81 -28 -263
-71 -301 -71 -19 0 -22 39 -3 44 187 55 337 121 450 198 74 50 185 155 223
209 l29 42 3 -109 c3 -109 3 -109 -25 -132z m586 -140 c37 -20 71 -73 71 -110
0 -38 -31 -93 -64 -113 -114 -70 -246 65 -176 179 35 58 108 77 169 44z m510
0 c37 -20 71 -73 71 -110 0 -38 -31 -93 -64 -113 -110 -67 -240 57 -181 172
33 63 110 85 174 51z"/>
<path d="M860 1529 c1 -29 68 -179 115 -255 64 -104 207 -244 313 -308 260
-155 583 -187 847 -84 l60 23 -85 3 c-90 3 -100 8 -100 56 0 26 -2 28 -27 21
-106 -26 -278 -22 -401 10 -237 61 -461 256 -551 479 -20 49 -27 56 -51 56
-15 0 -48 3 -74 6 -36 5 -46 4 -46 -7z"/>
<path d="M2434 1211 c-2 -2 8 -17 23 -33 l27 -28 -176 0 -176 0 -7 30 c-6 28
-9 30 -56 30 -27 0 -49 -2 -49 -5 0 -11 30 -212 35 -232 5 -21 11 -23 75 -23
78 0 80 3 55 63 -29 69 -35 67 169 67 l185 0 57 -65 58 -65 80 0 81 0 -127
127 -127 127 -61 6 c-33 3 -63 4 -66 1z"/>
</g>
</svg>
